<svg xmlns="http://www.w3.org/2000/svg" width="71.163" height="70.306" viewBox="0 0 71.163 70.306">
  <g id="Group_10791" data-name="Group 10791" transform="translate(-281.981 -3935.243)">
    <path id="high-quality_1_" data-name="high-quality (1)" d="M56.079,20.412,60.6,23.8a7.2,7.2,0,0,0,4.079,1.485l5.637.314a7.411,7.411,0,0,1,6.888,5.78l1.288,5.5a7.2,7.2,0,0,0,2.17,3.759l4.117,3.864a7.411,7.411,0,0,1,1.561,8.855l-2.547,5.039a7.2,7.2,0,0,0-.754,4.275l.67,5.606a7.411,7.411,0,0,1-4.5,7.787l-5.19,2.223a7.2,7.2,0,0,0-3.325,2.79l-3.09,4.725a7.411,7.411,0,0,1-8.449,3.075l-5.4-1.633a7.2,7.2,0,0,0-4.341,0l-5.4,1.633a7.411,7.411,0,0,1-8.449-3.075l-3.09-4.725a7.2,7.2,0,0,0-3.325-2.79l-5.19-2.223a7.411,7.411,0,0,1-4.5-7.787l.67-5.606a7.2,7.2,0,0,0-.754-4.275l-2.547-5.039a7.411,7.411,0,0,1,1.561-8.855l4.117-3.864a7.2,7.2,0,0,0,2.17-3.759l1.288-5.5a7.411,7.411,0,0,1,6.888-5.78l5.637-.314A7.2,7.2,0,0,0,42.568,23.8l4.52-3.383a7.411,7.411,0,0,1,8.991,0ZM48.7,55.982l-4.9-4.9a3.256,3.256,0,0,0-4.6,4.6L46.4,62.9a3.256,3.256,0,0,0,4.6,0c4.348-4.349,8.648-8.746,12.976-13.114a3.25,3.25,0,1,0-4.611-4.58ZM51.583,29.8a24.247,24.247,0,1,0,17.145,7.1A24.171,24.171,0,0,0,51.583,29.8Zm15.468,8.779a21.875,21.875,0,1,0,6.407,15.468,21.806,21.806,0,0,0-6.407-15.468Z" transform="translate(265.979 3916.351)" fill="#0670f4"/>
    <path id="high-quality_1_2" data-name="high-quality (1)" d="M48.7,55.982l-4.9-4.9a3.256,3.256,0,0,0-4.6,4.6L46.4,62.9a3.256,3.256,0,0,0,4.6,0c4.348-4.349,8.648-8.746,12.976-13.114a3.25,3.25,0,1,0-4.611-4.58Zm18.351-17.4a21.875,21.875,0,1,0,6.407,15.468,21.806,21.806,0,0,0-6.407-15.468Z" transform="translate(265.979 3916.351)" fill="#0d3a8f"/>
  </g>
</svg>
